<svg id="Layer_1" data-name="Layer 1" xmlns="http://www.w3.org/2000/svg" viewBox="0 0 250 250"><defs><style>.cls-1{fill:#64cbff;}.cls-2{fill:#ff55df;}</style></defs><title>Logo</title><path class="cls-1" d="M250,125A125,125,0,0,1,0,125q0-5,.39-10A125,125,0,0,1,250,125Z"/><path class="cls-2" d="M48.3,84.35l-25.4,57.5-19.72-45A124.51,124.51,0,0,0,.39,115L17.7,154.35h9.9l30.7-70Z"/><path class="cls-2" d="M61.1,153a6.63,6.63,0,0,1-2-4.95,6.52,6.52,0,0,1,2-4.85,6.62,6.62,0,0,1,4.8-1.95,6.37,6.37,0,0,1,4.7,1.9,6.62,6.62,0,0,1,1.9,4.9,6.71,6.71,0,0,1-2,4.95A6.35,6.35,0,0,1,65.9,155,6.62,6.62,0,0,1,61.1,153Z"/><path class="cls-2" d="M89,153.2a27.45,27.45,0,0,1-9.4-4.45l4-7.6a28.51,28.51,0,0,0,8.5,4,35,35,0,0,0,10.1,1.5q12.6,0,12.6-7.2a4.67,4.67,0,0,0-1.7-3.8,10.81,10.81,0,0,0-4.25-2.05c-1.7-.43-4.12-.92-7.25-1.45a71,71,0,0,1-10.45-2.3,16.09,16.09,0,0,1-7-4.4c-1.94-2.07-2.9-5-2.9-8.7a13.59,13.59,0,0,1,6-11.55q6-4.35,16.1-4.35a44.25,44.25,0,0,1,10.6,1.3,28.58,28.58,0,0,1,8.7,3.5l-4.1,7.6a27.57,27.57,0,0,0-15.3-4.2q-6.1,0-9.3,2a6,6,0,0,0-3.2,5.3,5.06,5.06,0,0,0,1.8,4.1,11.4,11.4,0,0,0,4.45,2.2c1.76.47,4.25,1,7.45,1.6a81.39,81.39,0,0,1,10.35,2.35,15.46,15.46,0,0,1,6.75,4.25c1.86,2,2.8,4.8,2.8,8.4a13.24,13.24,0,0,1-6.15,11.45q-6.15,4.25-16.75,4.25A44.31,44.31,0,0,1,89,153.2Z"/><path class="cls-2" d="M182.3,101.35l-25.7,58.3q-3.4,8.1-7.95,11.4a18.17,18.17,0,0,1-11,3.3,23.22,23.22,0,0,1-7.55-1.25,15.53,15.53,0,0,1-6.05-3.65l4.1-7.2a13.36,13.36,0,0,0,9.5,3.9,9.2,9.2,0,0,0,5.85-1.85A15.86,15.86,0,0,0,147.8,158l1.7-3.7-23.4-52.9h10l18.5,42.4,18.3-42.4Z"/><path class="cls-2" d="M193.3,153.2a27.54,27.54,0,0,1-9.4-4.45l4-7.6a28.51,28.51,0,0,0,8.5,4,35,35,0,0,0,10.1,1.5q12.6,0,12.6-7.2a4.67,4.67,0,0,0-1.7-3.8,10.81,10.81,0,0,0-4.25-2.05c-1.7-.43-4.12-.92-7.25-1.45a71,71,0,0,1-10.45-2.3,16.09,16.09,0,0,1-6.95-4.4c-1.94-2.07-2.9-5-2.9-8.7a13.59,13.59,0,0,1,6-11.55q6-4.35,16.1-4.35a44.25,44.25,0,0,1,10.6,1.3,28.58,28.58,0,0,1,8.7,3.5l-4.1,7.6a27.6,27.6,0,0,0-15.3-4.2q-6.1,0-9.3,2a6,6,0,0,0-3.2,5.3,5.06,5.06,0,0,0,1.8,4.1,11.4,11.4,0,0,0,4.45,2.2c1.76.47,4.25,1,7.45,1.6a81.39,81.39,0,0,1,10.35,2.35,15.46,15.46,0,0,1,6.75,4.25c1.86,2,2.8,4.8,2.8,8.4a13.24,13.24,0,0,1-6.15,11.45q-6.15,4.25-16.75,4.25A44.26,44.26,0,0,1,193.3,153.2Z"/></svg>